<svg xmlns="http://www.w3.org/2000/svg" viewBox="0 0 200 410"><defs><radialGradient id="lg" cx="40%" cy="35%" r="70%"><stop offset="0" stop-color="#3b4f7a"/><stop offset=".45" stop-color="#0d1426"/><stop offset="1" stop-color="#020306"/></radialGradient>
<linearGradient id="ring" x1="0" y1="0" x2="1" y2="1"><stop offset="0" stop-color="#f4f4f4"/><stop offset=".5" stop-color="#7a7d83"/><stop offset="1" stop-color="#d9dbe0"/></linearGradient>
<radialGradient id="fl" cx="50%" cy="45%" r="55%"><stop offset="0" stop-color="#fffbe6"/><stop offset=".6" stop-color="#f3d98a"/><stop offset="1" stop-color="#9c8247"/></radialGradient>
<linearGradient id="bd" x1="0" y1="0" x2="1" y2="1"><stop offset="0" stop-color="#ece6f3"/><stop offset="1" stop-color="#c7bdd8"/></linearGradient>
<linearGradient id="fr" x1="0" y1="0" x2="1" y2="0"><stop offset="0" stop-color="#b9b2c6"/><stop offset=".5" stop-color="#efebf5"/><stop offset="1" stop-color="#b9b2c6"/></linearGradient>
<linearGradient id="gl" x1="0" y1="0" x2="1" y2="1"><stop offset="0" stop-color="#fff" stop-opacity=".38"/><stop offset=".35" stop-color="#fff" stop-opacity=".05"/><stop offset="1" stop-color="#fff" stop-opacity="0"/></linearGradient>
</defs>
<rect x="4" y="4" width="192" height="402" rx="30" fill="url(#fr)"/>
<rect x="8" y="8" width="184" height="394" rx="27" fill="url(#bd)"/>
<path d="M8 120 L8 35 Q8 8 35 8 L150 8 Z" fill="url(#gl)"/>
<rect x="196" y="110" width="3" height="40" rx="1.5" fill="#efebf5"/><rect x="196" y="160" width="3" height="24" rx="1.5" fill="#efebf5"/>
<circle cx="40" cy="44" r="18" fill="#111317"/><circle cx="40" cy="44" r="16.6" fill="none" stroke="url(#ring)" stroke-width="2.2"/><circle cx="40" cy="44" r="15" fill="url(#lg)"/><circle cx="40" cy="44" r="6.75" fill="#05070c" stroke="#28324a" stroke-width="1"/><ellipse cx="34.75" cy="38.0" rx="4.2" ry="2.5500000000000003" fill="#fff" opacity=".55" transform="rotate(-35 34.75 38.0)"/><circle cx="44.5" cy="49.25" r="1.3499999999999999" fill="#8fb4ff" opacity=".6"/><circle cx="40" cy="86" r="18" fill="#111317"/><circle cx="40" cy="86" r="16.6" fill="none" stroke="url(#ring)" stroke-width="2.2"/><circle cx="40" cy="86" r="15" fill="url(#lg)"/><circle cx="40" cy="86" r="6.75" fill="#05070c" stroke="#28324a" stroke-width="1"/><ellipse cx="34.75" cy="80.0" rx="4.2" ry="2.5500000000000003" fill="#fff" opacity=".55" transform="rotate(-35 34.75 80.0)"/><circle cx="44.5" cy="91.25" r="1.3499999999999999" fill="#8fb4ff" opacity=".6"/><circle cx="40" cy="128" r="18" fill="#111317"/><circle cx="40" cy="128" r="16.6" fill="none" stroke="url(#ring)" stroke-width="2.2"/><circle cx="40" cy="128" r="15" fill="url(#lg)"/><circle cx="40" cy="128" r="6.75" fill="#05070c" stroke="#28324a" stroke-width="1"/><ellipse cx="34.75" cy="122.0" rx="4.2" ry="2.5500000000000003" fill="#fff" opacity=".55" transform="rotate(-35 34.75 122.0)"/><circle cx="44.5" cy="133.25" r="1.3499999999999999" fill="#8fb4ff" opacity=".6"/><circle cx="74" cy="44" r="6.5" fill="#2a2a2a"/><circle cx="74" cy="44" r="5" fill="url(#fl)"/><circle cx="74" cy="64" r="3" fill="#6f6a78"/></svg>